<?xml version="1.0" encoding="UTF-8" standalone="no"?>
<svg
   version="1.0"
   width="500pt"
   height="400pt"
   viewBox="0 0 500 400"
   preserveAspectRatio="xMidYMid meet"
   id="svg1779"
   xmlns="http://www.w3.org/2000/svg"
>

  <defs
     id="defs1783" />
 
  <metadata
     id="metadata1701">
Created by potrace 1.10, written by Peter Selinger 2001-2011
</metadata>
  <g
     transform="matrix(0.08105285,0,0,-0.07887991,2.874458,418.03692)"
     fill="#ffffff"
     stroke="none"
     id="g1777">
    <path
       d="m 5660,4981 c 0,-11 15,-14 33,-7 26,10 31,5 20,-22 -7,-19 -13,-39 -13,-44 0,-4 -11,-9 -25,-9 -40,-2 -176,-229 -277,-463 -128,-297 -233,-492 -278,-516 -49,-26 -180,-26 -180,1 0,12 9,16 20,9 11,-7 20,-3 20,9 0,28 -26,27 -57,-4 -20,-20 -28,-19 -41,2 -14,23 -19,23 -28,0 -9,-22 -16,-21 -38,5 -14,17 -36,28 -48,24 -48,-16 -383,369 -441,507 -35,86 -224,307 -261,307 -15,0 -26,10 -26,21 0,30 -86,15 -92,-16 -3,-15 0,-17 5,-5 15,29 67,25 67,-6 0,-14 -8,-35 -18,-45 -12,-12 27,-75 100,-165 65,-81 138,-184 161,-230 45,-91 157,-253 228,-334 99,-112 87,-140 -60,-140 -128,0 -191,-61 -113,-109 10,-6 23,-35 30,-66 27,-114 57,-163 112,-182 l 57,-20 -42,-86 c -58,-121 -110,-175 -156,-162 -22,5 -61,-5 -87,-22 -42,-28 -51,-28 -73,-2 -13,16 -52,36 -87,45 -52,14 -63,27 -68,82 -5,44 -19,70 -43,76 -20,5 -48,32 -63,59 -65,121 -397,304 -596,328 -72,9 -163,26 -202,38 -203,62 -644,-41 -833,-195 -347,-283 -515,-544 -481,-750 6,-42 -3,-94 -27,-145 -51,-108 -49,-235 5,-332 54,-95 43,-107 -122,-125 -62,-7 -155,-34 -206,-60 -51,-26 -142,-53 -202,-61 -60,-7 -178,-39 -262,-70 -84,-32 -170,-53 -190,-47 -25,6 -75,-18 -139,-67 -56,-42 -142,-107 -192,-143 -104,-74 -118,-113 -36,-96 97,21 671,51 693,36 37,-23 274,-36 502,-26 188,7 409,-9 433,-33 14,-14 61,-25 106,-25 138,0 315,-37 445,-92 112,-48 133,-51 214,-31 49,13 133,23 186,23 54,0 115,12 137,27 61,42 250,57 311,25 212,-110 604,-86 831,51 59,35 70,36 140,8 42,-16 113,-29 157,-29 44,1 107,-2 140,-6 58,-6 60,-3 66,88 7,115 -46,184 -126,164 -127,-32 -50,160 103,257 46,29 109,88 140,129 31,42 85,110 120,153 35,42 69,98 75,124 7,26 34,80 60,119 27,38 63,122 82,185 18,63 42,136 52,161 21,53 2,204 -26,204 -10,0 -15,47 -12,104 l 6,105 95,26 c 89,26 96,32 124,129 17,57 45,119 63,139 57,62 22,97 -99,97 h -107 l 39,145 c 22,80 56,181 76,225 20,44 65,156 100,248 35,92 85,199 112,238 52,77 60,124 22,125 -14,0 0,19 30,41 71,53 74,118 5,118 -27,0 -50,-9 -50,-19 z m -68,-295 c -54,-102 -252,-574 -252,-602 0,-59 -66,-224 -90,-224 -30,0 13,135 118,366 28,63 52,128 52,144 0,65 192,445 214,423 5,-6 -13,-54 -42,-107 z m -1427,-53 c 37,-46 87,-121 110,-167 24,-46 115,-172 204,-280 88,-108 177,-218 197,-244 33,-43 55,-49 204,-54 191,-7 249,-36 111,-57 -71,-10 -99,-6 -124,19 -21,21 -37,25 -46,12 -37,-60 -158,2 -244,125 -125,180 -311,425 -432,568 -103,123 -135,195 -76,173 16,-7 59,-49 96,-95 z m 825,-986 c 22,-45 52,-96 67,-114 17,-21 25,-72 21,-147 -4,-64 4,-134 16,-156 36,-62 50,-25 27,72 -29,126 -26,198 7,198 37,0 52,-43 54,-157 1,-51 8,-115 16,-143 16,-55 -15,-196 -64,-290 -17,-33 -60,-136 -95,-230 -80,-215 -175,-350 -314,-451 -110,-80 -245,-215 -245,-246 0,-19 -145,-52 -361,-81 -83,-11 -169,-27 -190,-35 -33,-12 -35,-10 -14,16 13,17 19,37 12,44 -8,7 15,18 51,26 35,7 77,31 93,54 32,46 40,142 11,124 -10,-6 -13,8 -7,30 13,52 90,104 130,88 19,-7 46,10 74,50 67,93 29,113 -61,32 -95,-86 -100,-87 -145,-11 -19,33 -44,60 -54,60 -34,0 -20,-73 20,-109 37,-34 6,-171 -38,-171 -21,0 -78,76 -66,88 6,6 -6,17 -27,23 -21,7 -57,22 -81,33 -29,14 -54,14 -80,-1 -20,-12 -26,-22 -12,-22 35,-1 31,-54 -5,-68 -16,-7 -30,-30 -30,-52 0,-23 -7,-41 -15,-40 -30,1 -85,54 -85,82 0,16 -11,40 -24,53 -13,13 -16,30 -8,39 8,8 27,-2 42,-22 21,-29 35,-32 64,-15 20,11 25,21 12,21 -14,1 -20,15 -13,31 8,22 -3,30 -40,30 -53,0 -57,47 -5,66 44,17 132,-10 132,-40 0,-44 45,-20 53,28 5,36 -7,45 -74,56 -98,17 -99,53 -1,115 l 67,42 -23,-44 c -26,-47 -15,-83 26,-83 27,0 77,-79 71,-111 -8,-41 2,-71 20,-60 10,6 24,3 31,-9 7,-11 37,-20 66,-20 l 54,1 -50,25 c -37,19 -50,41 -48,85 1,32 -10,66 -25,75 -14,8 -20,30 -13,48 10,25 5,30 -21,19 -18,-7 -46,-18 -63,-25 -16,-7 -30,-2 -30,10 0,13 14,29 31,35 22,9 24,18 9,38 -32,38 10,56 59,25 23,-14 41,-33 41,-42 0,-57 122,-138 151,-102 80,102 71,152 -13,77 -48,-45 -115,-3 -102,64 6,31 -1,47 -19,48 -15,0 5,15 43,33 39,18 82,30 98,28 17,-3 23,6 15,26 -7,20 9,51 42,82 66,60 85,63 71,10 -6,-22 -19,-35 -28,-29 -10,6 -18,-16 -18,-50 0,-33 -9,-61 -20,-61 -11,0 -20,-23 -20,-52 0,-54 48,-60 52,-6 4,57 9,62 35,40 22,-18 30,-10 40,39 15,74 56,59 49,-18 -4,-34 3,-51 19,-48 34,7 31,-16 -8,-65 -28,-35 -31,-35 -20,-4 10,30 5,34 -30,23 -31,-10 -38,-7 -28,14 8,15 -4,5 -27,-23 -23,-27 -41,-59 -42,-71 0,-11 -18,-36 -40,-54 -42,-36 -53,-75 -22,-75 10,0 23,11 28,25 7,19 15,20 34,1 43,-40 95,26 62,78 -18,29 -19,47 -4,62 16,16 22,12 22,-13 0,-20 8,-30 18,-24 11,6 22,-4 25,-22 5,-22 27,3 63,70 51,92 53,103 20,104 -33,0 -33,3 4,35 77,66 107,114 55,87 -25,-14 -45,-34 -45,-45 0,-11 -9,-15 -20,-8 -30,19 -24,50 9,50 32,0 77,67 58,86 -6,6 -25,6 -42,-1 -25,-9 -28,-1 -18,40 9,35 4,54 -17,62 -17,7 -30,26 -30,42 0,40 19,39 48,0 20,-27 29,-24 73,22 49,54 49,54 4,40 -44,-13 -64,15 -27,38 32,20 82,-12 82,-53 0,-61 49,-31 57,35 3,31 20,67 37,80 25,18 27,31 8,65 -19,35 -18,41 5,33 15,-6 42,11 60,39 43,65 42,68 -17,61 -27,-3 -50,-2 -50,2 0,30 68,169 82,169 26,0 21,-24 -13,-69 -41,-55 -36,-84 8,-44 20,18 42,28 48,21 6,-6 23,10 36,35 14,26 35,54 47,64 16,11 15,19 -1,26 -18,7 -16,29 7,83 61,149 95,156 156,31 z m -2063,31 c 28,-32 30,-47 12,-70 -13,-15 -16,-28 -6,-29 9,0 -5,-18 -31,-41 -35,-28 -53,-33 -63,-16 -8,13 -25,17 -38,9 -17,-11 -17,-22 -1,-41 36,-43 -11,-53 -49,-11 -33,37 -32,42 22,110 31,39 58,80 60,91 4,37 7,40 33,40 14,0 41,-19 61,-42 z m -242,-1 c -15,-15 -16,-38 -3,-72 25,-66 22,-68 -83,-36 l -89,27 55,21 c 30,12 55,36 55,53 0,18 18,30 44,30 33,0 38,-6 21,-23 z m 695,6 c 0,-9 -22,-27 -50,-39 -53,-24 -66,-8 -26,32 28,28 76,32 76,7 z m 128,-35 c 24,-9 10,-32 -59,-100 -99,-97 -109,-103 -109,-56 0,27 -6,28 -29,9 -30,-25 -78,-11 -67,20 8,23 179,135 209,137 13,1 38,-3 55,-10 z m -1008,-38 c 0,-22 -21,-30 -75,-28 l -75,1 60,28 c 78,35 90,35 90,-1 z m 634,-1 c 22,-22 38,-25 53,-10 67,67 45,-31 -33,-145 -36,-53 -40,-54 -65,-20 -27,35 -28,34 -28,-1 -1,-50 -128,-243 -138,-211 -5,14 1,29 14,34 13,4 23,26 23,48 0,34 -5,37 -29,17 -48,-40 -75,-5 -38,50 19,30 23,49 9,49 -12,0 -22,14 -22,30 0,27 8,26 54,-5 30,-19 48,-25 40,-12 -7,12 0,34 16,47 17,14 30,35 30,48 0,69 74,121 114,81 z m 466,-26 c 0,-22 -60,-74 -104,-89 -58,-20 -60,20 -3,64 54,43 107,55 107,25 z m -1209,-81 c -6,-10 -48,-25 -92,-32 -66,-11 -77,-19 -57,-42 27,-33 -8,-88 -56,-88 -20,0 -25,-13 -16,-40 14,-45 -39,-59 -57,-15 -6,16 -10,13 -11,-8 -1,-18 28,-47 67,-65 108,-51 99,-136 -11,-102 -27,9 -49,5 -59,-12 -25,-40 -77,14 -65,68 l 11,44 -34,-45 c -33,-45 -91,-62 -91,-26 0,30 223,272 244,266 10,-4 14,2 8,12 -6,10 1,29 17,42 53,44 226,81 202,43 z m 248,-55 c 30,-27 14,-65 -19,-47 -47,25 -60,25 -60,0 0,-11 15,-20 34,-20 26,0 28,-6 11,-23 -18,-18 -31,-17 -55,3 -27,22 -31,22 -26,-2 3,-15 -7,-29 -24,-31 -64,-5 -69,-8 -43,-25 19,-12 21,-21 5,-31 -12,-7 -22,-3 -22,9 0,14 -16,18 -40,10 -27,-8 -44,-2 -52,19 -7,17 -30,31 -51,31 -22,0 -34,9 -27,20 8,13 25,13 48,1 29,-15 45,-6 82,45 37,50 39,57 8,32 -26,-22 -54,-27 -88,-17 l -50,15 55,2 c 30,1 55,11 55,23 0,19 236,7 259,-14 z m 543,-53 c -12,-12 -22,-36 -21,-53 0,-17 19,3 40,44 22,41 53,75 69,75 51,0 33,-52 -45,-133 -41,-42 -86,-100 -100,-127 -14,-28 -33,-63 -43,-80 -10,-16 -28,-55 -40,-86 -12,-31 -31,-51 -42,-44 -29,18 -24,112 9,170 16,28 39,71 51,97 34,78 129,202 137,180 4,-11 -3,-31 -15,-43 z m 533,31 c 6,-17 -9,-21 -50,-13 -69,14 -134,-42 -84,-72 23,-15 20,-26 -17,-65 -24,-26 -44,-57 -44,-69 0,-34 56,-46 68,-15 6,16 24,29 40,29 16,0 57,24 91,52 35,29 67,49 72,43 18,-17 -194,-217 -376,-353 -63,-48 -115,-91 -115,-95 0,-12 100,47 190,113 44,32 87,59 96,59 26,1 -53,-97 -88,-109 -22,-7 -29,-27 -23,-59 6,-33 -3,-54 -32,-69 -22,-12 -45,-38 -52,-57 -6,-19 -38,-50 -71,-69 -33,-19 -60,-48 -60,-65 0,-17 -9,-31 -19,-31 -11,0 -14,16 -7,35 18,51 -12,19 -52,-57 -42,-77 -98,-93 -111,-31 -29,149 -30,173 -1,173 19,0 30,20 30,55 0,30 27,112 60,182 72,152 72,143 10,143 -27,0 -50,10 -50,22 0,35 121,138 162,138 41,0 51,-30 18,-50 -12,-7 -15,-21 -9,-31 17,-28 71,-23 68,6 -8,54 3,79 56,129 156,146 277,200 300,131 z m -964,-199 c 20,-28 30,-30 55,-9 34,28 114,-53 114,-116 0,-18 11,-44 24,-57 13,-13 18,-29 11,-36 -7,-6 -26,16 -44,50 -18,34 -40,62 -50,62 -17,0 10,-127 35,-170 35,-56 1,-298 -50,-354 -34,-38 -35,-38 -49,3 -9,22 -29,41 -46,41 -18,0 -25,12 -18,30 15,39 -8,38 -49,-3 -26,-26 -34,-27 -41,-5 -13,37 -55,78 -82,78 -11,0 -21,14 -21,30 0,17 -9,30 -20,30 -11,0 -20,-13 -20,-30 0,-16 -9,-30 -20,-30 -13,0 -16,30 -8,77 7,44 3,96 -10,119 -19,37 -16,42 31,48 30,3 57,16 62,29 5,17 -18,20 -76,12 -58,-7 -88,-3 -100,16 -23,38 18,83 64,68 20,-6 37,-2 37,10 0,11 10,21 23,21 12,0 35,16 49,35 15,19 27,25 27,12 1,-12 15,-28 31,-34 25,-10 27,-5 10,27 -17,31 -15,40 8,40 16,0 33,-16 37,-35 7,-26 12,-21 24,20 18,64 28,67 62,21 z m 1109,-51 c 0,-14 -19,-37 -42,-52 -23,-14 -36,-16 -29,-4 7,11 4,21 -7,21 -11,0 -29,-16 -40,-35 -10,-19 -25,-29 -33,-21 -21,22 11,58 78,87 78,34 73,34 73,4 z M 2352,3036 c 77,-152 40,-362 -69,-389 -47,-12 -47,-14 -12,-40 20,-15 33,-28 28,-29 -5,0 -27,-5 -49,-10 -155,-34 -284,-13 -208,33 15,9 20,23 13,31 -8,8 -31,0 -50,-18 -32,-29 -39,-29 -82,4 -41,31 -43,37 -15,61 26,21 33,20 43,-5 26,-68 85,-14 80,73 -8,132 39,195 133,180 78,-13 85,-5 56,63 -15,34 -17,35 -19,5 -1,-45 -13,-44 -64,3 -50,47 -32,86 33,70 35,-8 54,0 73,30 38,61 50,54 109,-62 z m -316,20 c 33,-33 30,-135 -4,-148 -39,-15 -112,27 -112,64 0,85 67,133 116,84 z m 1914,-3 c -20,-15 -39,-44 -42,-65 -3,-20 -16,-41 -29,-45 -12,-4 -47,-34 -76,-67 -29,-33 -91,-82 -138,-110 -47,-27 -85,-57 -85,-67 0,-9 -20,-23 -44,-30 -51,-16 -104,-76 -137,-153 -21,-50 -99,-45 -99,7 0,18 226,235 330,317 44,35 92,83 107,108 32,51 155,127 212,130 37,2 38,1 1,-25 z m -863,-146 c -20,-37 -43,-67 -52,-67 -30,0 -14,82 30,150 59,91 78,21 22,-83 z m 1113,74 c -10,-20 -43,-52 -74,-72 -31,-20 -105,-82 -166,-139 -128,-119 -269,-222 -410,-298 -119,-65 -181,-116 -258,-218 -32,-41 -62,-71 -67,-65 -24,23 45,134 106,172 36,22 99,80 140,129 71,85 298,250 344,250 12,0 82,66 155,146 117,129 140,146 191,138 48,-7 55,-14 39,-43 z m -525,-55 c -30,-30 -58,-49 -64,-44 -18,19 50,98 85,98 26,0 21,-12 -21,-54 z m -1729,-65 c 79,-40 71,-133 -11,-127 -30,2 -55,-5 -55,-15 0,-11 -8,-19 -19,-19 -25,0 -20,118 5,134 13,8 16,-1 8,-21 -14,-36 1,-42 41,-16 19,11 14,27 -18,62 -24,26 -35,43 -25,38 10,-4 43,-21 74,-36 z m 611,-288 c 5,-45 14,-55 45,-47 21,6 38,2 38,-8 0,-10 14,-18 31,-18 17,0 26,-8 20,-18 -14,-24 8,-82 31,-82 10,0 18,14 18,30 0,38 48,39 79,1 52,-63 -81,-307 -229,-420 -115,-88 -367,-170 -310,-101 14,17 39,30 56,30 34,0 124,76 124,104 0,9 -35,-7 -79,-35 -43,-29 -95,-49 -115,-45 -27,6 -14,20 49,52 47,25 85,54 85,64 0,29 -22,24 -97,-21 -37,-23 -71,-37 -76,-32 -5,4 25,30 67,55 60,38 68,49 39,55 -23,4 -68,-23 -115,-69 -84,-82 -99,-117 -42,-99 26,8 35,0 35,-29 0,-98 -127,-4 -201,149 -27,55 -58,115 -68,131 -11,17 -25,55 -31,86 -7,30 -30,71 -52,89 -76,65 -41,232 38,182 46,-29 58,-60 19,-52 -13,3 -27,-13 -31,-35 -6,-33 -3,-35 14,-10 16,24 21,21 21,-20 1,-65 39,-130 40,-67 0,33 11,42 49,40 42,-3 45,-7 20,-35 -51,-55 -37,-101 26,-85 54,13 54,12 20,-27 -34,-38 -47,-86 -24,-86 23,0 169,91 169,105 0,22 -15,19 -76,-17 -51,-31 -51,-30 6,20 55,47 56,52 18,52 -34,0 -42,12 -40,60 2,56 7,60 79,60 62,0 75,-6 65,-32 -8,-20 -3,-28 13,-23 14,5 25,26 25,46 0,64 57,54 130,-23 41,-44 56,-69 35,-62 -40,15 -43,6 -14,-47 27,-51 48,-49 73,6 19,43 23,40 85,-61 80,-130 106,-124 29,7 -30,52 -98,125 -150,163 -62,44 -92,79 -85,97 6,16 0,29 -13,29 -18,0 -19,7 -4,25 43,53 153,31 161,-32 z m 710,-83 c -6,-17 -2,-42 10,-56 16,-20 5,-42 -46,-90 -49,-47 -70,-56 -78,-36 -6,17 6,32 28,38 26,7 42,35 51,92 7,45 21,82 30,82 9,0 12,-14 5,-30 z m -257,-82 c 0,-80 -46,-100 -100,-44 -14,14 -3,18 35,11 30,-5 55,-2 55,8 0,9 -18,17 -40,17 -22,0 -40,10 -40,21 0,13 17,16 40,9 23,-7 40,-4 40,9 0,11 -9,21 -20,21 -11,0 -20,10 -20,22 0,12 11,18 25,13 14,-5 25,-42 25,-87 z m 91,-33 c -1,-47 0,-98 1,-115 2,-16 -4,-46 -12,-65 -8,-20 -6,-35 6,-35 10,0 25,20 31,44 6,24 16,40 21,35 19,-19 -31,-189 -59,-205 -16,-9 -29,-34 -29,-55 0,-23 -14,-39 -32,-39 -27,0 -28,5 -8,30 15,18 29,102 32,195 10,248 51,425 49,210 z m 439,-34 c 0,-22 -65,-61 -102,-61 -15,0 -11,15 12,40 38,42 90,54 90,21 z m -551,-48 c 30,-21 32,-30 10,-43 -16,-11 -30,-8 -34,6 -5,13 -21,24 -35,24 -15,0 -33,9 -40,20 -18,30 56,24 99,-7 z m 528,-58 c -3,-25 10,-76 29,-113 19,-38 34,-81 34,-97 0,-19 12,-25 33,-16 19,7 40,2 48,-11 20,-32 59,-4 59,43 0,28 12,37 44,34 49,-6 77,60 36,85 -17,10 -14,18 8,27 22,8 32,0 32,-25 0,-21 16,-43 35,-49 19,-7 53,-23 75,-37 22,-14 42,-27 45,-28 21,-8 -27,-67 -70,-87 -43,-19 -48,-27 -24,-44 21,-14 16,-16 -19,-6 -27,8 -42,5 -36,-5 15,-25 -112,-6 -128,18 -26,40 -132,40 -143,-1 -8,-29 -1,-36 28,-28 20,5 37,0 37,-13 0,-26 -133,-30 -149,-4 -6,10 -1,22 12,26 58,20 -9,57 -80,44 l -73,-12 56,57 c 45,46 59,52 73,28 15,-24 23,-24 51,-1 31,26 31,30 -2,54 -25,19 -42,20 -61,3 -19,-15 -27,-15 -27,-1 0,12 10,28 22,35 12,7 17,32 11,54 -10,39 16,115 39,115 6,0 8,-20 5,-45 z m -1637,-76 c 82,-160 -47,-212 -384,-154 -110,19 -155,18 -231,-4 -100,-29 -429,-44 -414,-19 17,27 151,62 194,51 42,-11 114,16 138,52 7,11 70,26 140,33 70,8 150,27 177,42 28,15 104,34 169,42 66,8 123,24 127,36 11,34 41,7 84,-79 z m 1125,-3 c -8,-72 -23,-100 -46,-85 -15,9 -15,20 0,38 16,19 6,41 -41,87 l -62,61 77,-27 c 63,-22 76,-36 72,-74 z m -120,-73 c 51,-32 75,-61 75,-93 0,-53 -61,-115 -75,-75 -6,19 -18,19 -49,3 -31,-17 -37,-16 -26,2 11,18 2,21 -32,11 -31,-9 -39,-7 -22,4 18,13 11,25 -29,43 -53,24 -39,61 23,61 11,0 7,-8 -8,-17 -36,-23 80,-88 125,-70 23,9 16,25 -33,72 l -64,61 60,-35 60,-36 -60,66 c -66,72 -57,72 55,3 z m -865,-93 c 14,-17 22,-34 18,-38 -15,-14 -98,27 -98,47 0,31 52,25 80,-9 z m -503,-22 c 118,-24 176,-26 232,-11 41,11 85,18 97,14 106,-31 107,-33 34,-64 -78,-34 -329,-25 -402,14 -30,16 -62,13 -128,-12 -63,-24 -102,-28 -142,-15 l -55,18 89,43 c 108,53 85,51 275,13 z m -500,-50 c -56,-11 -111,-11 -140,1 -36,14 -14,18 93,17 139,0 139,-1 47,-18 z m 1699,-2 c 35,-35 29,-56 -16,-56 -27,0 -40,13 -40,40 0,45 21,51 56,16 z"
       id="path1703" />
    <path
       d="m 4420,2924 c 0,-9 11,-27 24,-40 35,-35 56,-29 56,16 0,27 -13,40 -40,40 -22,0 -40,-7 -40,-16 z"
       id="path1705" />
    <path
       d="m 4020,2581 c 0,-54 24,-61 63,-19 30,30 30,36 4,46 -51,20 -67,14 -67,-27 z"
       id="path1707" />
    <path
       d="m 3430,3160 c -17,-28 19,-86 58,-92 38,-5 38,-4 9,61 -25,54 -47,64 -67,31 z"
       id="path1709" />
    <path
       d="m 3245,2905 c -25,-16 -45,-47 -45,-68 0,-22 -14,-66 -31,-98 -59,-115 2,-57 67,63 74,136 75,147 9,103 z"
       id="path1711" />
    <path
       d="m 2734,2927 c 10,-25 6,-29 -16,-16 -24,14 -24,12 -1,-17 24,-29 23,-34 -3,-34 -18,0 -37,9 -43,19 -7,11 -25,14 -42,8 -53,-20 -30,-38 51,-42 56,-2 80,5 80,24 0,15 11,31 24,36 30,10 2,55 -35,55 -18,0 -23,-12 -15,-33 z"
       id="path1713" />
    <path
       d="m 2120,2865 c -1,-30 -4,-31 -22,-5 -16,23 -17,18 -7,-20 26,-90 46,-136 68,-149 13,-8 16,0 7,23 -12,32 -10,33 22,7 34,-28 35,45 1,154 -12,38 -69,30 -69,-10 z"
       id="path1715" />
    <path
       d="m 1973,3026 c -25,-25 -13,-86 17,-86 17,0 30,17 30,39 0,42 -26,68 -47,47 z"
       id="path1717" />
    <path
       d="m 2529,2245 c 8,-27 5,-45 -8,-45 -11,0 -21,-9 -21,-21 0,-11 16,-18 35,-15 23,4 34,-6 32,-28 -1,-18 10,-38 25,-44 21,-8 20,7 -5,74 -36,93 -80,154 -58,79 z"
       id="path1719" />
    <path
       d="m 2160,2214 c -16,-14 -48,-46 -70,-72 l -40,-48 59,15 c 60,14 60,14 22,-28 -73,-80 -13,-63 70,20 89,89 85,92 -54,47 -34,-10 -34,-9 2,20 21,18 50,32 65,32 14,0 26,9 26,20 0,27 -44,24 -80,-6 z"
       id="path1721" />
    <path
       d="m 3835,2045 c -19,-30 -34,-44 -34,-30 -1,14 -14,25 -29,25 -54,0 -12,-70 45,-74 61,-4 110,52 91,103 -17,44 -34,39 -73,-24 z"
       id="path1723" />
    <path
       d="m 245,1350 c -138,-99 -140,-349 -5,-440 71,-47 93,-100 58,-142 -38,-46 -124,-27 -138,31 -17,74 -60,76 -60,2 0,-74 85,-171 133,-153 16,7 45,12 64,12 142,1 155,258 19,385 -88,83 -77,222 19,231 61,6 65,2 65,-55 0,-68 -27,-80 -59,-26 -18,29 -21,25 -16,-25 6,-66 85,-98 117,-47 87,138 -70,318 -197,227 z"
       id="path1725" />
    <path
       d="m 2340,1345 -170,-6 -3,-135 c -3,-131 -27,-337 -57,-491 -14,-72 -13,-76 32,-70 58,9 97,82 98,182 0,59 11,81 55,110 143,92 157,125 53,125 -71,0 -73,2 -60,63 19,96 47,117 152,117 89,0 98,5 117,60 18,52 16,59 -13,56 -19,-2 -110,-7 -204,-11 z"
       id="path1727" />
    <path
       d="m 4635,1306 c 35,-54 -16,-503 -66,-580 -45,-70 -39,-73 126,-59 233,20 332,137 237,282 -28,43 -26,49 19,92 159,150 42,320 -215,313 -130,-4 -131,-4 -101,-48 z m 221,-70 c 61,-61 15,-176 -70,-176 -39,0 -45,8 -36,50 5,28 15,73 20,100 12,54 47,65 86,26 z m -40,-273 c 62,-39 21,-192 -52,-199 l -67,-7 14,97 c 19,133 38,152 105,109 z"
       id="path1729" />
    <path
       d="m 5624,1167 c -11,-20 -26,-92 -33,-158 -21,-182 -40,-186 -79,-19 -40,170 -98,186 -122,35 -6,-41 -25,-123 -42,-182 -29,-99 -29,-109 5,-146 42,-47 52,-30 76,128 17,120 36,109 80,-46 35,-125 67,-145 92,-58 72,252 88,570 23,446 z"
       id="path1731" />
    <path
       d="m 2575,1155 c -155,-120 -145,-495 15,-495 110,0 191,209 149,385 -29,121 -93,164 -164,110 z m 81,-79 c 59,-59 5,-326 -66,-326 -53,0 -66,172 -22,278 32,77 50,86 88,48 z"
       id="path1733" />
    <path
       d="m 3752,1145 c -5,-19 -20,-109 -33,-199 -24,-168 -60,-233 -103,-190 -17,17 -16,67 3,194 25,170 20,217 -20,177 -36,-36 -69,-359 -43,-416 36,-80 152,-73 196,12 32,62 91,413 74,442 -16,28 -63,15 -74,-20 z"
       id="path1735" />
    <path
       d="m 514,1085 c 9,-67 -39,-365 -66,-408 -17,-27 78,-19 178,15 125,42 143,75 37,65 -137,-13 -138,103 -1,134 78,17 63,60 -19,56 -68,-3 -73,5 -44,81 14,36 39,54 90,63 108,20 102,42 -15,56 -174,21 -171,22 -160,-62 z"
       id="path1737" />
    <path
       d="M 884,1129 C 782,1057 736,785 815,715 c 80,-70 145,-57 200,40 30,53 12,57 -51,13 -72,-50 -111,-5 -99,118 11,116 69,203 136,204 30,0 51,13 55,35 9,46 -108,49 -172,4 z"
       id="path1739" />
    <path
       d="m 1131,1138 c -10,-31 -71,-420 -71,-455 0,-35 54,-27 68,9 7,17 12,53 12,80 0,117 86,78 110,-50 28,-150 197,-257 238,-151 9,24 2,29 -24,20 -95,-30 -216,242 -143,320 47,50 52,173 10,208 -46,39 -188,52 -200,19 z m 139,-138 c 0,-57 -8,-71 -45,-76 -47,-7 -62,50 -32,125 23,61 77,26 77,-49 z"
       id="path1741" />
    <path
       d="m 1436,1095 c 10,-65 -32,-346 -60,-400 -23,-46 41,-47 170,-3 125,42 143,75 37,65 -129,-12 -137,81 -11,127 81,29 79,65 -4,67 -116,3 -66,116 64,145 166,37 183,-17 116,-383 -13,-74 -12,-76 28,-51 47,30 56,56 75,240 14,144 20,157 78,189 85,48 43,59 -225,61 l -276,2 z"
       id="path1743" />
    <path
       d="m 2849,1146 c -12,-9 -32,-109 -46,-222 -14,-114 -31,-221 -37,-238 -8,-21 -1,-28 25,-23 24,5 46,36 60,86 37,131 88,109 117,-51 23,-127 196,-218 228,-120 5,16 0,22 -12,15 -98,-61 -225,219 -144,321 100,128 -63,327 -191,232 z m 144,-96 c 23,-60 -11,-130 -63,-130 -54,0 -62,26 -30,109 21,56 75,68 93,21 z"
       id="path1745" />
    <path
       d="m 3186,1135 c -44,-58 -103,-475 -67,-475 21,0 61,126 61,195 0,25 9,45 20,45 11,0 20,-26 20,-57 0,-69 38,-183 60,-183 9,0 36,61 60,135 72,224 100,185 49,-69 -10,-47 24,-81 52,-53 16,16 40,144 72,394 15,111 -57,134 -106,33 -50,-103 -87,-197 -87,-223 -1,-21 -5,-20 -20,3 -11,17 -20,72 -20,124 0,113 -52,186 -94,131 z"
       id="path1747" />
    <path
       d="m 3900,1150 c 0,-29 -63,-425 -72,-455 -13,-42 29,-46 126,-11 54,20 76,19 108,-1 37,-23 43,-18 72,56 55,138 150,128 174,-18 28,-177 52,-99 52,168 v 271 h -58 c -70,0 -95,-36 -171,-247 l -57,-157 -69,11 c -89,14 -84,4 -60,135 21,116 7,258 -26,258 -10,0 -19,-5 -19,-10 z m 380,-155 c -1,-82 -27,-124 -67,-109 -28,11 -27,20 3,93 41,98 64,103 64,16 z"
       id="path1749" />
    <path
       d="m 5130,1095 c -75,-169 -149,-380 -139,-397 22,-35 49,-17 84,57 36,77 118,114 133,61 4,-14 18,-65 31,-112 38,-140 60,-77 59,169 -1,274 -5,287 -80,287 -47,0 -65,-13 -88,-65 z m 62,-187 c -14,-37 -72,-36 -72,1 0,16 16,63 35,104 l 35,74 6,-76 c 4,-41 2,-88 -4,-103 z"
       id="path1751" />
    <path
       d="m 5732,1133 c 17,-46 -30,-357 -62,-406 l -31,-47 h 103 c 217,0 334,252 197,427 -47,60 -229,83 -207,26 z m 169,-116 c 31,-114 -41,-304 -101,-267 -23,14 -20,73 13,266 14,80 67,81 88,1 z"
       id="path1753" />
  </g>
</svg>
